<svg version="1.1" id="Layer_1" xmlns="http://www.w3.org/2000/svg" xmlns:xlink="http://www.w3.org/1999/xlink" x="0px" y="0px"
	 width="100%" viewBox="0 0 500 500" enable-background="new 0 0 500 500" xml:space="preserve">
<path fill="#034FAF" opacity="1.000000" stroke="none" 
	d="
M470.000000,1.000000 
	C480.325287,1.000000 490.650574,1.000000 500.957031,1.000000 
	C500.957031,167.666672 500.957031,334.333344 500.957031,501.000000 
	C490.921814,501.000000 480.929565,501.000000 470.468658,500.531342 
	C470.000000,333.708466 470.000000,167.354233 470.000000,1.000000 
z"/>
<path fill="#5ADBE4" opacity="1.000000" stroke="none" 
	d="
M30.000000,501.000000 
	C20.340918,501.000000 10.681836,501.000000 1.042268,501.000000 
	C1.042268,334.333313 1.042268,167.666656 1.042268,1.000000 
	C10.410584,1.000000 19.736633,1.000000 29.531322,1.468657 
	C29.999973,168.291550 29.999987,334.645782 30.000000,501.000000 
z"/>
<path fill="#0958B2" opacity="1.000000" stroke="none" 
	d="
M469.531342,1.000000 
	C470.000000,167.354233 470.000000,333.708466 470.000000,500.531342 
	C461.312439,501.000000 452.624878,501.000000 443.468658,500.531342 
	C443.000000,333.708466 443.000000,167.354233 443.000000,1.000000 
	C451.687561,1.000000 460.375122,1.000000 469.531342,1.000000 
z"/>
<path fill="#55D3E1" opacity="1.000000" stroke="none" 
	d="
M30.468624,501.000000 
	C29.999987,334.645782 29.999973,168.291550 29.999981,1.468657 
	C37.354252,1.000000 44.708500,1.000000 52.531403,1.468657 
	C53.000038,168.291550 53.000019,334.645782 53.000000,501.000000 
	C45.645748,501.000000 38.291496,501.000000 30.468624,501.000000 
z"/>
<path fill="#156CBA" opacity="1.000000" stroke="none" 
	d="
M378.000000,1.000000 
	C385.020966,1.000000 392.041901,1.000000 399.531433,1.467854 
	C400.000000,168.290466 400.000000,334.645233 400.000000,501.000000 
	C392.979034,501.000000 385.958099,501.000000 378.449829,500.618774 
	C377.962524,489.697723 378.025360,479.157471 377.947327,468.618225 
	C377.838715,453.954529 377.492859,439.291656 377.492889,424.628418 
	C377.492889,409.965179 377.925476,395.301971 377.925476,380.638733 
	C377.925476,365.975494 377.492920,351.312286 377.492889,336.649048 
	C377.492889,321.985809 377.925476,307.322601 377.925476,292.659363 
	C377.925507,277.996124 377.492920,263.332886 377.492889,248.669662 
	C377.492889,234.006439 377.925446,219.343231 377.925446,204.680008 
	C377.925446,190.016785 377.482758,175.353485 377.492706,160.690384 
	C377.504425,143.391296 377.925476,126.092384 377.925446,108.793396 
	C377.925446,91.494377 377.483276,74.195267 377.494171,56.896362 
	C377.505890,38.264141 377.818604,19.632113 378.000000,1.000000 
z"/>
<path fill="#51CDDF" opacity="1.000000" stroke="none" 
	d="
M53.468578,501.000000 
	C53.000019,334.645782 53.000038,168.291550 53.000031,1.468657 
	C60.020947,1.000000 67.041893,1.000000 74.531418,1.467854 
	C75.000000,168.290466 75.000000,334.645233 75.000000,501.000000 
	C67.979050,501.000000 60.958103,501.000000 53.468578,501.000000 
z"/>
<path fill="#0D5FB5" opacity="1.000000" stroke="none" 
	d="
M442.531433,1.000000 
	C443.000000,167.354233 443.000000,333.708466 443.000000,500.531342 
	C435.979034,501.000000 428.958099,501.000000 421.468567,500.532166 
	C421.000000,333.709534 421.000000,167.354767 421.000000,1.000000 
	C428.020966,1.000000 435.041901,1.000000 442.531433,1.000000 
z"/>
<path fill="#1165B7" opacity="1.000000" stroke="none" 
	d="
M420.532227,1.000000 
	C421.000000,167.354767 421.000000,333.709534 421.000000,500.532166 
	C414.311859,501.000000 407.623688,501.000000 400.467773,501.000000 
	C400.000000,334.645233 400.000000,168.290466 400.000000,1.467854 
	C406.688141,1.000000 413.376312,1.000000 420.532227,1.000000 
z"/>
<path fill="#1973BC" opacity="1.000000" stroke="none" 
	d="
M377.531616,1.000000 
	C377.818604,19.632113 377.505890,38.264141 377.494171,56.896362 
	C377.483276,74.195267 377.925446,91.494377 377.925446,108.793396 
	C377.925476,126.092384 377.504425,143.391296 377.492706,160.690384 
	C377.482758,175.353485 377.925446,190.016785 377.925446,204.680008 
	C377.925446,219.343231 377.492889,234.006439 377.492889,248.669662 
	C377.492920,263.332886 377.925507,277.996124 377.925476,292.659363 
	C377.925476,307.322601 377.492889,321.985809 377.492889,336.649048 
	C377.492920,351.312286 377.925476,365.975494 377.925476,380.638733 
	C377.925476,395.301971 377.492889,409.965179 377.492889,424.628418 
	C377.492859,439.291656 377.838715,453.954529 377.947327,468.618225 
	C378.025360,479.157471 377.962524,489.697723 377.981262,500.618774 
	C371.645599,501.000000 365.291199,501.000000 358.468384,500.531342 
	C358.000000,333.708466 358.000000,167.354233 358.000000,1.000000 
	C364.354401,1.000000 370.708801,1.000000 377.531616,1.000000 
z"/>
<path fill="#4DC6DC" opacity="1.000000" stroke="none" 
	d="
M75.467560,501.000000 
	C75.000000,334.645233 75.000000,168.290466 75.000000,1.467854 
	C81.021629,1.000000 87.043259,1.000000 93.532562,1.468657 
	C94.000153,168.291550 94.000076,334.645782 94.000000,501.000000 
	C87.978371,501.000000 81.956741,501.000000 75.467560,501.000000 
z"/>
<path fill="#4AC1DA" opacity="1.000000" stroke="none" 
	d="
M94.468269,501.000000 
	C94.000076,334.645782 94.000153,168.291550 94.000114,1.468657 
	C97.692909,1.000000 101.385818,1.000000 105.539368,1.468657 
	C106.000023,53.321304 105.953125,104.705414 106.083519,156.089066 
	C106.094719,160.501816 107.282280,164.911575 107.806671,169.623505 
	C105.682968,175.939987 103.257362,181.852020 101.737793,187.988403 
	C92.719040,224.408310 96.898109,258.947662 117.272606,290.929779 
	C119.234161,294.008850 118.357361,295.497284 116.480919,298.136566 
	C110.859566,306.043152 104.758286,313.877319 100.770737,322.618530 
	C93.327736,338.934479 98.093338,352.069489 113.164795,361.853088 
	C113.080643,408.574127 113.040321,454.787048 113.000000,501.000000 
	C106.978844,501.000000 100.957695,501.000000 94.468269,501.000000 
z"/>
<path fill="#1D78BE" opacity="1.000000" stroke="none" 
	d="
M357.532043,1.000000 
	C358.000000,167.354233 358.000000,333.708466 358.000000,500.531342 
	C354.307098,501.000000 350.614166,501.000000 346.460632,500.531342 
	C346.000000,428.117676 346.019562,356.172607 345.932617,284.227722 
	C345.928925,281.160156 344.939880,278.093811 344.504883,274.706268 
	C355.168884,250.612213 357.777924,225.828232 353.952332,200.245316 
	C351.590698,184.452530 345.536499,169.969833 338.431213,155.840790 
	C339.190948,153.654984 339.945984,151.627808 339.948669,149.599655 
	C340.014343,100.066490 340.000000,50.533237 340.000000,1.000000 
	C345.688049,1.000000 351.376068,1.000000 357.532043,1.000000 
z"/>
<path fill="#2180C1" opacity="1.000000" stroke="none" 
	d="
M332.000000,501.000000 
	C325.312347,501.000000 318.624725,501.000000 311.468536,500.531342 
	C310.991608,440.015472 310.983246,379.968231 311.130676,319.627747 
	C317.723969,312.511169 324.161438,305.687836 330.900208,299.174316 
	C331.467682,301.760437 331.964905,304.036560 331.966370,306.313049 
	C332.008118,371.208679 332.000000,436.104340 332.000000,501.000000 
z"/>
<path fill="#2586C4" opacity="1.000000" stroke="none" 
	d="
M310.974884,319.921021 
	C310.983246,379.968231 310.991608,440.015472 311.000000,500.531342 
	C304.312347,501.000000 297.624725,501.000000 290.468567,500.531342 
	C289.971649,444.957672 289.943298,389.852631 290.116486,334.481934 
	C297.203644,329.451172 304.089264,324.686096 310.974884,319.921021 
z"/>
<path fill="#298CC6" opacity="1.000000" stroke="none" 
	d="
M289.914917,334.747620 
	C289.943298,389.852631 289.971649,444.957672 290.000000,500.531342 
	C283.645599,501.000000 277.291199,501.000000 270.468384,500.531342 
	C269.993011,447.964752 269.986023,395.866852 270.239563,343.528870 
	C276.971710,340.441742 283.443298,337.594666 289.914917,334.747620 
z"/>
<path fill="#2D92C8" opacity="1.000000" stroke="none" 
	d="
M269.979004,343.768921 
	C269.986023,395.866852 269.993011,447.964752 270.000000,500.531342 
	C263.645599,501.000000 257.291199,501.000000 250.468414,500.531342 
	C249.999985,452.579071 250.016754,405.095428 249.957550,357.611908 
	C249.954056,354.819031 249.338043,352.026978 249.398499,349.118195 
	C256.519623,347.257538 263.249298,345.513245 269.979004,343.768921 
z"/>
<path fill="#38A4CF" opacity="1.000000" stroke="none" 
	d="
M211.000000,501.000000 
	C204.645599,501.000000 198.291214,501.000000 191.467346,500.585266 
	C190.830078,492.472015 190.547516,484.773895 190.523911,477.074921 
	C190.495300,467.744598 190.714493,458.413788 190.771576,449.082825 
	C190.814560,442.056946 190.773621,435.030487 190.765442,428.004303 
	C190.757996,421.613678 190.776520,415.222778 190.725754,408.832458 
	C190.653015,399.672363 190.549057,390.512390 190.418411,381.352936 
	C190.301743,373.173737 190.130844,364.995270 190.252533,356.581207 
	C194.396393,354.879120 198.209457,353.206146 202.167389,352.014130 
	C205.068161,351.140503 208.159103,350.898163 211.130585,350.881287 
	C211.063934,401.258759 211.031967,451.129395 211.000000,501.000000 
z"/>
<path fill="#1D79BF" opacity="1.000000" stroke="none" 
	d="
M332.464661,501.000000 
	C332.000000,436.104340 332.008118,371.208679 331.966370,306.313049 
	C331.964905,304.036560 331.467682,301.760437 331.035400,298.849854 
	C335.382843,290.486023 339.896332,282.756439 344.409851,275.026886 
	C344.939880,278.093811 345.928925,281.160156 345.932617,284.227722 
	C346.019562,356.172607 346.000000,428.117676 346.000000,500.531342 
	C341.643097,501.000000 337.286194,501.000000 332.464661,501.000000 
z"/>
<path fill="#3198CB" opacity="1.000000" stroke="none" 
	d="
M249.007080,349.234528 
	C249.338043,352.026978 249.954056,354.819031 249.957550,357.611908 
	C250.016754,405.095428 249.999985,452.579071 250.000000,500.531342 
	C243.978851,501.000000 237.957703,501.000000 231.462311,500.588013 
	C230.695496,498.048340 230.137360,495.918335 230.156189,493.793396 
	C230.238739,484.481140 230.654053,475.170013 230.635788,465.859131 
	C230.612396,453.932861 230.131165,442.007080 230.138672,430.081268 
	C230.146179,418.156219 230.573853,406.232025 230.706665,394.306244 
	C230.866867,379.920898 230.910477,365.534302 231.455963,351.071838 
	C237.607285,350.408447 243.307175,349.821472 249.007080,349.234528 
z"/>
<path fill="#349ECD" opacity="1.000000" stroke="none" 
	d="
M231.004562,351.148224 
	C230.910477,365.534302 230.866867,379.920898 230.706665,394.306244 
	C230.573853,406.232025 230.146179,418.156219 230.138672,430.081268 
	C230.131165,442.007080 230.612396,453.932861 230.635788,465.859131 
	C230.654053,475.170013 230.238739,484.481140 230.156189,493.793396 
	C230.137360,495.918335 230.695496,498.048340 230.994049,500.588013 
	C224.645599,501.000000 218.291214,501.000000 211.468414,501.000000 
	C211.031967,451.129395 211.063934,401.258759 211.590271,350.863159 
	C218.391296,350.608185 224.697922,350.878204 231.004562,351.148224 
z"/>
<path fill="#3CAAD1" opacity="1.000000" stroke="none" 
	d="
M189.983887,356.816498 
	C190.130844,364.995270 190.301743,373.173737 190.418411,381.352936 
	C190.549057,390.512390 190.653015,399.672363 190.725754,408.832458 
	C190.776520,415.222778 190.757996,421.613678 190.765442,428.004303 
	C190.773621,435.030487 190.814560,442.056946 190.771576,449.082825 
	C190.714493,458.413788 190.495300,467.744598 190.523911,477.074921 
	C190.547516,484.773895 190.830078,492.472015 190.998932,500.585266 
	C184.645599,501.000000 178.291214,501.000000 171.468414,500.531342 
	C171.000000,456.908905 171.018402,413.755096 170.957428,370.601410 
	C170.953491,367.808228 170.338287,365.015869 170.393890,362.110107 
	C177.181503,360.270233 183.582703,358.543365 189.983887,356.816498 
z"/>
<path fill="#3FB0D4" opacity="1.000000" stroke="none" 
	d="
M170.007446,362.223145 
	C170.338287,365.015869 170.953491,367.808228 170.957428,370.601410 
	C171.018402,413.755096 171.000000,456.908905 171.000000,500.531342 
	C164.645599,501.000000 158.291214,501.000000 151.468414,500.531342 
	C151.000000,469.784027 151.024506,439.505310 150.989410,409.226685 
	C150.972458,394.589142 150.843536,379.951752 151.149689,365.213257 
	C157.691864,364.149231 163.849655,363.186188 170.007446,362.223145 
z"/>
<path fill="#43B6D6" opacity="1.000000" stroke="none" 
	d="
M150.765289,365.314270 
	C150.843536,379.951752 150.972458,394.589142 150.989410,409.226685 
	C151.024506,439.505310 151.000000,469.784027 151.000000,500.531342 
	C144.645599,501.000000 138.291214,501.000000 131.468414,500.531342 
	C130.996292,455.285431 130.992599,410.508179 131.457367,365.690308 
	C138.205643,365.537872 144.485474,365.426086 150.765289,365.314270 
z"/>
<path fill="#45B9D7" opacity="1.000000" stroke="none" 
	d="
M121.000000,1.000000 
	C127.354393,1.000000 133.708786,1.000000 140.531586,1.468657 
	C141.000015,39.838413 140.977615,77.739555 141.049164,115.640518 
	C141.054077,118.243156 141.761490,120.844467 141.957397,123.702896 
	C135.707916,130.382416 129.643250,136.805450 123.241776,142.979828 
	C122.270027,140.076614 121.088379,137.423462 121.081581,134.767288 
	C120.967514,90.178421 121.000046,45.589169 121.000000,1.000000 
z"/>
<path fill="#47BCD8" opacity="1.000000" stroke="none" 
	d="
M130.988892,365.730927 
	C130.992599,410.508179 130.996292,455.285431 131.000000,500.531342 
	C125.311958,501.000000 119.623917,501.000000 113.467941,501.000000 
	C113.040321,454.787048 113.080643,408.574127 113.535614,361.976868 
	C119.629807,362.972015 125.309349,364.351471 130.988892,365.730927 
z"/>
<path fill="#2688C4" opacity="1.000000" stroke="none" 
	d="
M283.000000,1.000000 
	C290.020966,1.000000 297.041901,1.000000 304.531433,1.468657 
	C304.999847,38.160397 305.033844,74.383583 304.919006,110.606308 
	C304.911743,112.898026 303.745575,115.186081 302.835693,117.333481 
	C296.032532,113.161278 289.512207,109.131424 282.993835,104.626556 
	C282.997131,69.767685 282.998566,35.383842 283.000000,1.000000 
z"/>
<path fill="#2382C2" opacity="1.000000" stroke="none" 
	d="
M303.118561,117.475838 
	C303.745575,115.186081 304.911743,112.898026 304.919006,110.606308 
	C305.033844,74.383583 304.999847,38.160397 305.000000,1.468657 
	C311.021149,1.000000 317.042297,1.000000 323.531708,1.468657 
	C323.962341,46.719414 323.924713,91.501518 323.586609,136.121811 
	C316.563599,129.798615 309.841095,123.637230 303.118561,117.475838 
z"/>
<path fill="#49BFDA" opacity="1.000000" stroke="none" 
	d="
M120.533882,1.000000 
	C121.000046,45.589169 120.967514,90.178421 121.081581,134.767288 
	C121.088379,137.423462 122.270027,140.076614 123.077286,143.292053 
	C118.140854,152.342880 113.032120,160.832794 107.923386,169.322723 
	C107.282280,164.911575 106.094719,160.501816 106.083519,156.089066 
	C105.953125,104.705414 106.000023,53.321304 106.000000,1.468657 
	C110.689255,1.000000 115.378510,1.000000 120.533882,1.000000 
z"/>
<path fill="#1F7CC0" opacity="1.000000" stroke="none" 
	d="
M323.887085,136.283615 
	C323.924713,91.501518 323.962341,46.719414 324.000000,1.468657 
	C329.022095,1.000000 334.044189,1.000000 339.533142,1.000000 
	C340.000000,50.533237 340.014343,100.066490 339.948669,149.599655 
	C339.945984,151.627808 339.190948,153.654984 338.175476,155.610458 
	C333.005371,149.120071 328.446228,142.701843 323.887085,136.283615 
z"/>
<path fill="#2B8FC7" opacity="1.000000" stroke="none" 
	d="
M282.531372,1.000000 
	C282.998566,35.383842 282.997131,69.767685 282.627319,104.592255 
	C274.500153,102.092682 266.741364,99.152382 258.986694,95.768021 
	C259.300903,84.671471 259.800201,74.020134 259.864227,63.366173 
	C259.920288,54.039490 259.419586,44.710823 259.287445,35.381298 
	C259.125061,23.921808 259.090027,12.460514 259.000000,1.000000 
	C266.687592,1.000000 274.375153,1.000000 282.531372,1.000000 
z"/>
<path fill="#2F96CA" opacity="1.000000" stroke="none" 
	d="
M258.531372,1.000000 
	C259.090027,12.460514 259.125061,23.921808 259.287445,35.381298 
	C259.419586,44.710823 259.920288,54.039490 259.864227,63.366173 
	C259.800201,74.020134 259.300903,84.671471 258.588074,95.765335 
	C250.459061,95.076103 242.732681,93.945488 235.004974,92.384682 
	C235.002411,61.636322 235.001205,31.318161 235.000000,1.000000 
	C242.687576,1.000000 250.375168,1.000000 258.531372,1.000000 
z"/>
<path fill="#41B3D5" opacity="1.000000" stroke="none" 
	d="
M142.142197,123.446396 
	C141.761490,120.844467 141.054077,118.243156 141.049164,115.640518 
	C140.977615,77.739555 141.000015,39.838413 141.000000,1.468657 
	C146.354935,1.000000 151.709854,1.000000 157.532394,1.468657 
	C158.000000,33.708084 157.958557,65.478973 158.045883,97.249496 
	C158.058594,101.873573 158.686813,106.495949 158.832428,111.391953 
	C153.137131,115.591988 147.639664,119.519188 142.142197,123.446396 
z"/>
<path fill="#38A3CF" opacity="1.000000" stroke="none" 
	d="
M193.000000,1.000000 
	C199.687637,1.000000 206.375290,1.000000 213.531464,1.468657 
	C213.999954,29.491383 214.028397,57.045525 213.956253,84.599403 
	C213.948959,87.383888 213.334488,90.166771 212.606567,93.081314 
	C205.852570,94.323517 199.493820,95.434792 193.106110,96.043907 
	C193.051453,64.027832 193.025726,32.513916 193.000000,1.000000 
z"/>
<path fill="#349DCD" opacity="1.000000" stroke="none" 
	d="
M213.001816,92.950401 
	C213.334488,90.166771 213.948959,87.383888 213.956253,84.599403 
	C214.028397,57.045525 213.999954,29.491383 214.000000,1.468657 
	C220.687637,1.000000 227.375290,1.000000 234.531464,1.000000 
	C235.001205,31.318161 235.002411,61.636322 234.539551,92.446259 
	C227.050934,92.942154 220.026382,92.946274 213.001816,92.950401 
z"/>
<path fill="#3EAED3" opacity="1.000000" stroke="none" 
	d="
M159.030228,111.119110 
	C158.686813,106.495949 158.058594,101.873573 158.045883,97.249496 
	C157.958557,65.478973 158.000000,33.708084 158.000000,1.468657 
	C163.354935,1.000000 168.709854,1.000000 174.532394,1.468657 
	C175.000046,32.881939 174.972061,63.826633 175.050888,94.771057 
	C175.057526,97.375999 175.781036,99.979118 175.887421,102.762611 
	C170.078979,105.667793 164.554596,108.393448 159.030228,111.119110 
z"/>
<path fill="#3BA9D1" opacity="1.000000" stroke="none" 
	d="
M176.171509,102.583084 
	C175.781036,99.979118 175.057526,97.375999 175.050888,94.771057 
	C174.972061,63.826633 175.000046,32.881939 175.000000,1.468657 
	C180.688034,1.000000 186.376083,1.000000 192.532043,1.000000 
	C193.025726,32.513916 193.051453,64.027832 192.784363,96.197495 
	C187.051529,98.763184 181.611511,100.673141 176.171509,102.583084 
z"/>
<path fill="#F8FCFD" opacity="1.000000" stroke="none" 
	d="
M175.887421,102.762619 
	C181.611511,100.673141 187.051529,98.763184 192.813293,96.699646 
	C199.493820,95.434792 205.852570,94.323517 212.606567,93.081314 
	C220.026382,92.946274 227.050934,92.942154 234.540909,92.876450 
	C242.732681,93.945488 250.459061,95.076103 258.584015,96.209396 
	C266.741364,99.152382 274.500153,102.092682 282.625427,105.067276 
	C289.512207,109.131424 296.032532,113.161278 302.835693,117.333481 
	C309.841095,123.637230 316.563599,129.798615 323.586609,136.121811 
	C328.446228,142.701843 333.005371,149.120071 337.820251,155.768631 
	C345.536499,169.969833 351.590698,184.452530 353.952332,200.245316 
	C357.777924,225.828232 355.168884,250.612213 344.504883,274.706268 
	C339.896332,282.756439 335.382843,290.486023 330.734131,298.540039 
	C324.161438,305.687836 317.723969,312.511169 311.130676,319.627747 
	C304.089264,324.686096 297.203644,329.451172 290.116455,334.481934 
	C283.443298,337.594666 276.971710,340.441742 270.239563,343.528870 
	C263.249298,345.513245 256.519623,347.257538 249.398499,349.118195 
	C243.307175,349.821472 237.607285,350.408447 231.455963,351.071838 
	C224.697922,350.878204 218.391296,350.608185 211.624969,350.356323 
	C208.159103,350.898163 205.068161,351.140503 202.167389,352.014130 
	C198.209457,353.206146 194.396393,354.879120 190.252548,356.581207 
	C183.582703,358.543365 177.181503,360.270233 170.393890,362.110107 
	C163.849655,363.186188 157.691864,364.149231 151.149689,365.213257 
	C144.485474,365.426086 138.205643,365.537872 131.457367,365.690308 
	C125.309349,364.351471 119.629807,362.972015 113.579453,361.468750 
	C98.093338,352.069489 93.327736,338.934479 100.770737,322.618530 
	C104.758286,313.877319 110.859566,306.043152 116.480919,298.136566 
	C118.357361,295.497284 119.234161,294.008850 117.272606,290.929779 
	C96.898109,258.947662 92.719040,224.408310 101.737793,187.988403 
	C103.257362,181.852020 105.682968,175.939987 107.806671,169.623505 
	C113.032120,160.832794 118.140854,152.342880 123.414078,143.540710 
	C129.643250,136.805450 135.707916,130.382416 141.957397,123.702888 
	C147.639664,119.519188 153.137131,115.591988 158.832428,111.391953 
	C164.554596,108.393448 170.078979,105.667793 175.887421,102.762619 
M238.387360,331.389038 
	C231.435547,336.022278 224.483734,340.655548 217.531937,345.288788 
	C217.604599,345.612122 217.677261,345.935486 217.749924,346.258850 
	C225.165909,345.841400 232.581909,345.423981 240.845993,345.072296 
	C250.048981,342.806305 259.251953,340.540344 269.170471,338.175171 
	C276.550934,334.508911 283.931396,330.842651 291.978973,327.021912 
	C298.137726,322.281647 304.296478,317.541412 311.037018,312.423615 
	C316.051788,306.690002 321.066559,300.956390 326.675079,294.860291 
	C330.138489,289.284637 333.978302,283.904755 336.998383,278.098541 
	C348.446930,256.088104 352.496063,232.590805 349.945038,207.992371 
	C347.726868,186.603455 339.968048,167.259796 327.237457,149.124466 
	C321.586151,142.864716 315.934845,136.604965 309.929169,129.817856 
	C303.334686,125.018120 296.740204,120.218384 289.660583,114.991058 
	C283.165710,111.960121 276.670807,108.929184 269.637085,105.381195 
	C266.798126,104.416107 263.959198,103.451019 261.754547,102.701561 
	C259.888824,110.184265 259.262939,117.192780 256.411072,123.132484 
	C251.497833,133.365402 245.199112,142.933075 239.007935,153.209122 
	C227.359161,165.255142 215.710373,177.301147 204.603851,188.786423 
	C216.085205,188.786423 228.548126,188.786423 241.809753,188.995071 
	C250.873367,191.658813 259.936981,194.322556 269.461334,197.485977 
	C275.467194,203.040527 281.473053,208.595062 287.763245,214.830261 
	C292.407684,223.295898 295.087830,232.475754 293.843933,241.970535 
	C292.526550,252.025925 289.654846,261.877716 287.098145,272.379761 
	C281.466583,285.395508 273.611145,296.995239 264.001862,308.167267 
	C255.673187,315.839478 247.344528,323.511688 238.387360,331.389038 
M204.724289,178.825333 
	C210.856628,173.343094 216.988968,167.860840 223.732132,162.023605 
	C228.599640,156.190796 233.830017,150.618866 238.252823,144.466370 
	C245.575287,134.280182 251.779617,123.361938 253.818024,110.779694 
	C254.337006,107.576164 253.639099,102.359474 251.595001,101.056267 
	C249.457214,99.693329 244.193588,100.874786 241.751556,102.794868 
	C234.749054,108.300652 228.483170,114.743332 221.342285,121.167389 
	C214.532990,131.100662 207.723694,141.033920 200.363724,151.358734 
	C193.450211,164.530365 186.536697,177.701996 179.174744,191.382080 
	C166.936554,217.171280 156.210907,243.560577 146.417282,270.909576 
	C159.996536,264.016235 172.543915,257.646698 185.827484,251.136429 
	C195.017548,247.851578 204.207596,244.566727 214.146530,241.214554 
	C222.097244,239.158813 230.047958,237.103088 238.814545,235.082809 
	C239.621689,234.984253 240.435104,234.768890 241.234650,234.811859 
	C242.820328,234.897064 244.398376,235.124741 245.979568,235.293518 
	C245.045212,236.803116 244.208603,238.388245 243.129074,239.785736 
	C242.688278,240.356308 241.721252,240.520401 240.164886,240.832870 
	C233.603928,242.342911 227.042969,243.852966 219.696655,245.314972 
	C213.796143,247.177475 207.895645,249.039978 201.240570,250.940369 
	C195.162888,253.353302 189.085205,255.766235 182.316238,258.262207 
	C174.948517,262.032227 167.580780,265.802246 159.615784,269.809296 
	C154.744705,272.959015 149.809799,276.016663 145.045486,279.320343 
	C143.785339,280.194153 142.661865,281.686340 142.142136,283.133911 
	C139.845795,289.529572 137.655579,295.972687 135.760529,302.495575 
	C135.354004,303.894836 135.768356,306.373352 136.764786,307.206970 
	C144.998932,314.095856 153.459229,320.714417 162.321503,327.885498 
	C168.765350,330.996460 175.209183,334.107452 182.224762,337.699402 
	C188.813934,339.513458 195.403122,341.327515 202.759964,343.213348 
	C209.223877,340.006805 215.687775,336.800232 222.821732,333.293152 
	C228.903763,328.938232 234.985794,324.583313 241.716034,319.974731 
	C247.479767,314.323761 253.243484,308.672760 259.609802,302.709778 
	C261.158905,300.575989 262.562836,298.316681 264.281128,296.329132 
	C274.068329,285.008240 280.439026,271.892761 283.712738,257.440247 
	C289.420593,232.241867 280.533539,213.218246 258.363464,202.818359 
	C251.599426,201.038101 244.835403,199.257858 237.311172,197.187531 
	C228.871490,197.085571 220.431793,196.983597 211.094025,196.777649 
	C202.355270,198.001099 193.616516,199.224564 184.063873,200.477264 
	C182.439453,200.124451 180.815018,199.771637 179.190598,199.418823 
	C179.685074,197.761688 179.979187,196.003296 180.746933,194.484268 
	C181.230576,193.527328 182.423187,192.928711 183.966141,192.019470 
	C190.672668,187.696960 197.379181,183.374466 204.724289,178.825333 
M161.608368,180.579102 
	C149.569534,213.600281 139.397583,247.155441 132.845535,281.769196 
	C143.711960,255.482056 154.578384,229.194901 165.868469,202.298416 
	C168.445831,196.801514 170.824768,191.200500 173.642899,185.829941 
	C179.082596,175.463470 184.770264,165.227127 190.864044,154.399643 
	C203.752548,133.570236 216.764816,112.842766 238.397186,98.160866 
	C218.181503,96.689774 199.703659,98.667595 181.287247,106.119133 
	C171.500473,111.676659 161.713715,117.234184 151.282410,123.030655 
	C144.803802,129.206299 138.325195,135.381943 131.261642,141.939484 
	C125.796478,150.609024 120.331322,159.278549 114.353127,168.413925 
	C103.849327,190.086792 100.434837,212.969543 103.231155,236.751663 
	C104.807098,250.154663 108.174934,263.144592 114.886421,275.825165 
	C116.903854,279.626953 118.921280,283.428741 121.178947,287.683228 
	C125.708939,269.986023 129.985764,253.277863 134.731995,235.907425 
	C136.565323,229.465530 138.085602,222.913910 140.296921,216.604507 
	C144.948746,203.331940 149.963120,190.186462 155.199509,176.350220 
	C159.054352,167.800583 162.342194,158.932724 166.914261,150.785583 
	C172.087021,141.568069 178.412338,132.997360 184.885849,123.849876 
	C186.437973,123.075096 187.930191,121.889938 189.560669,121.651947 
	C190.930420,121.452011 193.267578,121.960419 193.714050,122.871696 
	C194.256760,123.979477 193.541214,125.982475 192.840500,127.321007 
	C192.385757,128.189682 190.984909,128.563049 189.291580,129.055542 
	C186.613617,131.587204 182.913254,133.631058 181.432770,136.734055 
	C174.629288,150.993729 168.445816,165.549194 161.608368,180.579102 
M147.896149,357.153229 
	C163.166580,356.353119 177.828018,352.939148 192.070480,346.990906 
	C176.111633,341.951935 161.561844,334.579407 147.811249,324.328705 
	C142.847153,320.142303 137.883057,315.955902 133.840424,312.546600 
	C130.479111,314.811462 127.749840,316.650452 124.366402,318.125549 
	C118.549538,314.551208 120.724503,308.224335 118.861893,302.793274 
	C114.371338,309.508301 109.821960,316.127625 106.954742,323.409332 
	C100.543381,339.691895 107.024117,351.397430 124.845497,355.992615 
	C132.229218,356.350555 139.612930,356.708527 147.896149,357.153229 
z"/>
<path fill="#2686C4" opacity="1.000000" stroke="none" 
	d="
M287.462067,271.818420 
	C289.654846,261.877716 292.526550,252.025925 293.843933,241.970535 
	C295.087830,232.475754 292.407684,223.295898 288.027466,214.353226 
	C288.861115,211.774445 289.916260,209.675156 289.926910,207.570587 
	C290.081787,176.853683 290.097107,146.136078 290.145721,115.418648 
	C296.740204,120.218384 303.334686,125.018120 309.923523,130.511017 
	C309.612061,133.326279 309.040924,135.448151 309.039062,137.570526 
	C308.990387,193.568100 308.982422,249.565765 309.062195,305.563263 
	C309.065643,307.976562 309.970367,310.388580 310.455231,312.801178 
	C304.296478,317.541412 298.137726,322.281647 291.359436,326.773010 
	C290.493256,324.574371 290.041351,322.625580 290.032837,320.674835 
	C289.971497,306.537872 290.106445,292.398804 289.886108,278.265015 
	C289.852417,276.104065 288.307861,273.966705 287.462067,271.818420 
z"/>
<path fill="#2281C2" opacity="1.000000" stroke="none" 
	d="
M310.746124,312.612396 
	C309.970367,310.388580 309.065643,307.976562 309.062195,305.563263 
	C308.982422,249.565765 308.990387,193.568100 309.039062,137.570526 
	C309.040924,135.448151 309.612061,133.326279 310.100708,130.774689 
	C315.934845,136.604965 321.586151,142.864716 327.022461,149.658600 
	C326.205048,152.488770 325.082642,154.783554 325.077087,157.081009 
	C324.972504,200.341187 324.980133,243.601700 325.046448,286.862030 
	C325.050720,289.649475 325.720917,292.435913 326.081329,295.222809 
	C321.066559,300.956390 316.051788,306.690002 310.746124,312.612396 
z"/>
<path fill="#207CC0" opacity="1.000000" stroke="none" 
	d="
M326.378204,295.041565 
	C325.720917,292.435913 325.050720,289.649475 325.046448,286.862030 
	C324.980133,243.601700 324.972504,200.341187 325.077087,157.081009 
	C325.082642,154.783554 326.205048,152.488770 327.176392,149.972641 
	C339.968048,167.259796 347.726868,186.603455 349.945038,207.992371 
	C352.496063,232.590805 348.446930,256.088104 336.998383,278.098541 
	C333.978302,283.904755 330.138489,289.284637 326.378204,295.041565 
z"/>
<path fill="#2F95CA" opacity="1.000000" stroke="none" 
	d="
M240.993637,240.869415 
	C241.721252,240.520401 242.688278,240.356308 243.129074,239.785736 
	C244.208603,238.388245 245.045212,236.803116 245.979568,235.293518 
	C244.398376,235.124741 242.820328,234.897064 241.234650,234.811859 
	C240.435104,234.768890 239.621689,234.984253 238.406815,234.593201 
	C238.023178,221.894913 238.047272,209.686249 238.071350,197.477600 
	C244.835403,199.257858 251.599426,201.038101 258.683624,203.471451 
	C259.004944,237.090286 259.006073,270.056030 259.007202,303.021759 
	C253.243484,308.672760 247.479767,314.323761 241.376251,319.617676 
	C241.022171,293.130219 241.007904,266.999817 240.993637,240.869415 
z"/>
<path fill="#2A8CC6" opacity="1.000000" stroke="none" 
	d="
M289.903137,115.204849 
	C290.097107,146.136078 290.081787,176.853683 289.926910,207.570587 
	C289.916260,209.675156 288.861115,211.774445 287.885315,214.012909 
	C281.473053,208.595062 275.467194,203.040527 269.230652,196.768402 
	C268.999664,168.066513 268.974548,140.082153 269.049805,112.098030 
	C269.055359,110.030449 269.783630,107.964798 270.175903,105.898254 
	C276.670807,108.929184 283.165710,111.960121 289.903137,115.204849 
z"/>
<path fill="#2F94C9" opacity="1.000000" stroke="none" 
	d="
M269.906494,105.639725 
	C269.783630,107.964798 269.055359,110.030449 269.049805,112.098030 
	C268.974548,140.082153 268.999664,168.066513 269.000305,196.518555 
	C259.936981,194.322556 250.873367,191.658813 241.408295,188.436035 
	C241.003983,178.000626 241.077118,168.123093 240.930008,158.248856 
	C240.902740,156.419098 239.987335,154.602570 239.481842,152.779938 
	C245.199112,142.933075 251.497833,133.365402 256.411072,123.132484 
	C259.262939,117.192780 259.888824,110.184265 261.754547,102.701561 
	C263.959198,103.451019 266.798126,104.416107 269.906494,105.639725 
z"/>
<path fill="#36A1CE" opacity="1.000000" stroke="none" 
	d="
M201.995132,250.902481 
	C207.895645,249.039978 213.796143,247.177475 220.361267,245.741333 
	C221.350555,248.424683 221.948578,250.680496 221.958267,252.938858 
	C222.073486,279.823578 222.101089,306.708649 222.151672,333.593658 
	C215.687775,336.800232 209.223877,340.006805 202.378098,342.698242 
	C201.995865,311.756287 201.995499,281.329376 201.995132,250.902481 
z"/>
<path fill="#47BCD8" opacity="1.000000" stroke="none" 
	d="
M134.262589,236.569702 
	C129.985764,253.277863 125.708939,269.986023 121.178947,287.683228 
	C118.921280,283.428741 116.903854,279.626953 115.145493,275.252380 
	C115.935364,273.020203 116.924507,271.362122 116.929222,269.701233 
	C117.020599,237.511475 117.029854,205.321289 116.906067,173.131760 
	C116.899422,171.401291 115.576393,169.675858 114.866158,167.948090 
	C120.331322,159.278549 125.796478,150.609024 131.589798,142.249878 
	C131.945312,171.288132 131.914520,200.016342 132.098145,228.743195 
	C132.114853,231.356537 133.508408,233.961075 134.262589,236.569702 
z"/>
<path fill="#2C90C8" opacity="1.000000" stroke="none" 
	d="
M259.308502,302.865784 
	C259.006073,270.056030 259.004944,237.090286 259.003906,203.670166 
	C280.533539,213.218246 289.420593,232.241867 283.712738,257.440247 
	C280.439026,271.892761 274.068329,285.008240 264.281128,296.329132 
	C262.562836,298.316681 261.158905,300.575989 259.308502,302.865784 
z"/>
<path fill="#43B6D6" opacity="1.000000" stroke="none" 
	d="
M134.497284,236.238556 
	C133.508408,233.961075 132.114853,231.356537 132.098145,228.743195 
	C131.914520,200.016342 131.945312,171.288132 131.882263,142.058929 
	C138.325195,135.381943 144.803802,129.206299 151.690979,123.335754 
	C152.399475,126.093971 152.943451,128.545578 152.958755,131.000488 
	C153.043503,144.603638 152.934692,158.208282 153.080734,171.810394 
	C153.099319,173.542587 154.219086,175.262970 154.828705,176.988815 
	C149.963120,190.186462 144.948746,203.331940 140.296921,216.604507 
	C138.085602,222.913910 136.565323,229.465530 134.497284,236.238556 
z"/>
<path fill="#3AA6D0" opacity="1.000000" stroke="none" 
	d="
M201.617859,250.921417 
	C201.995499,281.329376 201.995865,311.756287 201.994263,342.662354 
	C195.403122,341.327515 188.813934,339.513458 182.230072,337.130646 
	C182.490250,334.456512 182.961975,332.351624 182.966766,330.245697 
	C183.021484,306.223602 183.005005,282.201385 183.007538,258.179199 
	C189.085205,255.766235 195.162888,253.353302 201.617859,250.921417 
z"/>
<path fill="#329BCC" opacity="1.000000" stroke="none" 
	d="
M222.486694,333.443420 
	C222.101089,306.708649 222.073486,279.823578 221.958267,252.938858 
	C221.948578,250.680496 221.350555,248.424683 220.753937,245.765350 
	C227.042969,243.852966 233.603928,242.342911 240.579254,240.851135 
	C241.007904,266.999817 241.022171,293.130219 241.052155,319.744507 
	C234.985794,324.583313 228.903763,328.938232 222.486694,333.443420 
z"/>
<path fill="#3EACD2" opacity="1.000000" stroke="none" 
	d="
M182.661896,258.220703 
	C183.005005,282.201385 183.021484,306.223602 182.966766,330.245697 
	C182.961975,332.351624 182.490250,334.456512 181.944214,336.890167 
	C175.209183,334.107452 168.765350,330.996460 162.120270,327.152222 
	C161.945297,309.275574 162.024887,292.131805 161.919281,274.989227 
	C161.908127,273.180145 160.807983,271.377747 160.213058,269.572266 
	C167.580780,265.802246 174.948517,262.032227 182.661896,258.220703 
z"/>
<path fill="#3FADD3" opacity="1.000000" stroke="none" 
	d="
M185.091309,251.277145 
	C172.543915,257.646698 159.996536,264.016235 146.417282,270.909576 
	C156.210907,243.560577 166.936554,217.171280 179.783020,191.204727 
	C181.360107,191.408035 182.328934,191.788712 183.297760,192.169373 
	C182.423187,192.928711 181.230576,193.527328 180.746933,194.484268 
	C179.979187,196.003296 179.685074,197.761688 179.190598,199.418823 
	C180.815018,199.771637 182.439453,200.124451 184.495331,200.973724 
	C184.981644,218.072510 185.036469,234.674820 185.091309,251.277145 
z"/>
<path fill="#3AA5D0" opacity="1.000000" stroke="none" 
	d="
M185.459396,251.206787 
	C185.036469,234.674820 184.981644,218.072510 184.902283,200.959106 
	C193.616516,199.224564 202.355270,198.001099 211.544754,197.306885 
	C211.996811,210.286804 211.935562,222.738144 212.062088,235.187546 
	C212.082794,237.223312 212.931595,239.250641 213.397659,241.281876 
	C204.207596,244.566727 195.017548,247.851578 185.459396,251.206787 
z"/>
<path fill="#38A4CF" opacity="1.000000" stroke="none" 
	d="
M190.007950,129.158340 
	C190.984909,128.563049 192.385757,128.189682 192.840500,127.321007 
	C193.541214,125.982475 194.256760,123.979477 193.714050,122.871696 
	C193.267578,121.960419 190.930420,121.452011 189.560669,121.651947 
	C187.930191,121.889938 186.437973,123.075096 184.264374,123.726372 
	C183.097900,117.769012 182.552917,111.935165 182.007935,106.101311 
	C199.703659,98.667595 218.181503,96.689774 238.397186,98.160866 
	C216.764816,112.842766 203.752548,133.570236 190.533386,154.223694 
	C190.137817,145.751266 190.072876,137.454803 190.007950,129.158340 
z"/>
<path fill="#329BCC" opacity="1.000000" stroke="none" 
	d="
M221.927719,120.817719 
	C228.483170,114.743332 234.749054,108.300652 241.751556,102.794868 
	C244.193588,100.874786 249.457214,99.693329 251.595001,101.056267 
	C253.639099,102.359474 254.337006,107.576164 253.818024,110.779694 
	C251.779617,123.361938 245.575287,134.280182 238.252823,144.466370 
	C233.830017,150.618866 228.599640,156.190796 223.336472,161.764572 
	C222.627243,159.054718 222.068741,156.606567 222.042160,154.152634 
	C221.921875,143.041885 221.951859,131.929504 221.927719,120.817719 
z"/>
<path fill="#4BC0DA" opacity="1.000000" stroke="none" 
	d="
M114.609642,168.181000 
	C115.576393,169.675858 116.899422,171.401291 116.906067,173.131760 
	C117.029854,205.321289 117.020599,237.511475 116.929222,269.701233 
	C116.924507,271.362122 115.935364,273.020203 115.057236,274.902008 
	C108.174934,263.144592 104.807098,250.154663 103.231155,236.751663 
	C100.434837,212.969543 103.849327,190.086792 114.609642,168.181000 
z"/>
<path fill="#3FB0D4" opacity="1.000000" stroke="none" 
	d="
M181.647583,106.110222 
	C182.552917,111.935165 183.097900,117.769012 183.939682,123.874130 
	C178.412338,132.997360 172.087021,141.568069 166.914261,150.785583 
	C162.342194,158.932724 159.054352,167.800583 155.014099,176.669525 
	C154.219086,175.262970 153.099319,173.542587 153.080734,171.810394 
	C152.934692,158.208282 153.043503,144.603638 152.958755,131.000488 
	C152.943451,128.545578 152.399475,126.093971 152.013245,123.216278 
	C161.713715,117.234184 171.500473,111.676659 181.647583,106.110222 
z"/>
<path fill="#349DCD" opacity="1.000000" stroke="none" 
	d="
M213.772095,241.248215 
	C212.931595,239.250641 212.082794,237.223312 212.062088,235.187546 
	C211.935562,222.738144 211.996811,210.286804 211.993805,197.358871 
	C220.431793,196.983597 228.871490,197.085571 237.691254,197.332550 
	C238.047272,209.686249 238.023178,221.894913 237.998886,234.575470 
	C230.047958,237.103088 222.097244,239.158813 213.772095,241.248215 
z"/>
<path fill="#2A8CC6" opacity="1.000000" stroke="none" 
	d="
M287.280090,272.099091 
	C288.307861,273.966705 289.852417,276.104065 289.886108,278.265015 
	C290.106445,292.398804 289.971497,306.537872 290.032837,320.674835 
	C290.041351,322.625580 290.493256,324.574371 291.025879,326.850220 
	C283.931396,330.842651 276.550934,334.508911 268.507019,337.898926 
	C267.562103,335.848785 267.065979,334.078278 267.037872,332.300354 
	C266.937866,325.976715 267.180786,319.641937 266.883240,313.330719 
	C266.795044,311.460175 265.354980,309.653381 264.534393,307.817352 
	C273.611145,296.995239 281.466583,285.395508 287.280090,272.099091 
z"/>
<path fill="#41B3D5" opacity="1.000000" stroke="none" 
	d="
M159.914429,269.690796 
	C160.807983,271.377747 161.908127,273.180145 161.919281,274.989227 
	C162.024887,292.131805 161.945297,309.275574 161.885040,326.916901 
	C153.459229,320.714417 144.998932,314.095856 136.764786,307.206970 
	C135.768356,306.373352 135.354004,303.894836 135.760529,302.495575 
	C137.655579,295.972687 139.845795,289.529572 142.142136,283.133911 
	C142.661865,281.686340 143.785339,280.194153 145.045486,279.320343 
	C149.809799,276.016663 154.744705,272.959015 159.914429,269.690796 
z"/>
<path fill="#45B9D7" opacity="1.000000" stroke="none" 
	d="
M125.020554,318.489441 
	C127.749840,316.650452 130.479111,314.811462 133.840424,312.546600 
	C137.883057,315.955902 142.847153,320.142303 147.726318,324.946472 
	C147.426468,336.065002 147.211563,346.565735 146.996643,357.066467 
	C139.612930,356.708527 132.229218,356.350555 124.425568,355.435089 
	C124.343941,342.748199 124.682251,330.618805 125.020554,318.489441 
z"/>
<path fill="#3EACD2" opacity="1.000000" stroke="none" 
	d="
M189.649765,129.106934 
	C190.072876,137.454803 190.137817,145.751266 190.278931,154.492279 
	C184.770264,165.227127 179.082596,175.463470 173.642899,185.829941 
	C170.824768,191.200500 168.445831,196.801514 165.457535,202.151199 
	C164.696289,196.336441 164.470428,190.656769 163.920563,185.008652 
	C163.753632,183.293839 162.691818,181.666138 162.039886,179.998535 
	C168.445816,165.549194 174.629288,150.993729 181.432770,136.734055 
	C182.913254,133.631058 186.613617,131.587204 189.649765,129.106934 
z"/>
<path fill="#36A1CE" opacity="1.000000" stroke="none" 
	d="
M221.635010,120.992554 
	C221.951859,131.929504 221.921875,143.041885 222.042160,154.152634 
	C222.068741,156.606567 222.627243,159.054718 223.031067,161.942078 
	C216.988968,167.860840 210.856628,173.343094 204.125793,178.664948 
	C203.017624,175.987625 202.245300,173.490921 202.049377,170.949783 
	C201.536636,164.299286 201.275711,157.629364 200.914398,150.967194 
	C207.723694,141.033920 214.532990,131.100662 221.635010,120.992554 
z"/>
<path fill="#41B3D5" opacity="1.000000" stroke="none" 
	d="
M147.446396,357.109863 
	C147.211563,346.565735 147.426468,336.065002 147.907257,325.232544 
	C161.561844,334.579407 176.111633,341.951935 192.070480,346.990906 
	C177.828018,352.939148 163.166580,356.353119 147.446396,357.109863 
z"/>
<path fill="#49BFDA" opacity="1.000000" stroke="none" 
	d="
M124.693481,318.307495 
	C124.682251,330.618805 124.343941,342.748199 124.007843,355.331726 
	C107.024117,351.397430 100.543381,339.691895 106.954742,323.409332 
	C109.821960,316.127625 114.371338,309.508301 118.861893,302.793274 
	C120.724503,308.224335 118.549538,314.551208 124.693481,318.307495 
z"/>
<path fill="#46B4D6" opacity="1.000000" stroke="none" 
	d="
M161.824127,180.288818 
	C162.691818,181.666138 163.753632,183.293839 163.920563,185.008652 
	C164.470428,190.656769 164.696289,196.336441 165.245712,202.455872 
	C154.578384,229.194901 143.711960,255.482056 132.845535,281.769196 
	C139.397583,247.155441 149.569534,213.600281 161.824127,180.288818 
z"/>
<path fill="#2F95CA" opacity="1.000000" stroke="none" 
	d="
M264.268127,307.992310 
	C265.354980,309.653381 266.795044,311.460175 266.883240,313.330719 
	C267.180786,319.641937 266.937866,325.976715 267.037872,332.300354 
	C267.065979,334.078278 267.562103,335.848785 268.149261,337.948547 
	C259.251953,340.540344 250.048981,342.806305 240.421219,344.580383 
	C239.669586,339.786926 239.342728,335.485413 239.015854,331.183899 
	C247.344528,323.511688 255.673187,315.839478 264.268127,307.992310 
z"/>
<path fill="#349DCD" opacity="1.000000" stroke="none" 
	d="
M239.244888,152.994537 
	C239.987335,154.602570 240.902740,156.419098 240.930008,158.248856 
	C241.077118,168.123093 241.003983,178.000626 241.008942,188.331726 
	C228.548126,188.786423 216.085205,188.786423 204.603851,188.786423 
	C215.710373,177.301147 227.359161,165.255142 239.244888,152.994537 
z"/>
<path fill="#3BA9D1" opacity="1.000000" stroke="none" 
	d="
M200.639069,151.162964 
	C201.275711,157.629364 201.536636,164.299286 202.049377,170.949783 
	C202.245300,173.490921 203.017624,175.987625 203.806488,178.778259 
	C197.379181,183.374466 190.672668,187.696960 183.631958,192.094421 
	C182.328934,191.788712 181.360107,191.408035 180.007233,190.950500 
	C186.536697,177.701996 193.450211,164.530365 200.639069,151.162964 
z"/>
<path fill="#36A1CE" opacity="1.000000" stroke="none" 
	d="
M238.701599,331.286469 
	C239.342728,335.485413 239.669586,339.786926 239.997162,344.547485 
	C232.581909,345.423981 225.165909,345.841400 217.749924,346.258850 
	C217.677261,345.935486 217.604599,345.612122 217.531937,345.288788 
	C224.483734,340.655548 231.435547,336.022278 238.701599,331.286469 
z"/>
</svg>